# Blender v3.0.0 OBJ File: ''
# www.blender.org
mtllib blob.mtl
o Icosphere
v 0.000000 -0.985334 0.000000
v 1.262035 -0.447220 1.125474
v -0.482045 -0.447220 1.821072
v -1.559959 -0.447033 0.000000
v -0.482045 -0.447220 -1.106843
v 1.262035 -0.447220 -1.008207
v 0.482045 0.470084 1.821072
v -1.262035 0.534952 1.125474
v -1.262035 0.534952 -1.019769
v 0.482045 0.470084 -1.115622
v 1.559959 0.597951 0.000000
v 0.000000 2.140453 0.000000
v -0.283337 -0.850654 1.070391
v 0.741800 -0.849301 0.661532
v 0.458467 -0.525738 1.731934
v 1.483605 -0.525559 0.000000
v 0.741800 -0.849301 -0.614731
v -0.916919 -0.846204 0.000000
v -1.200263 -0.525736 1.070395
v -0.283337 -0.850654 -0.796705
v -1.200263 -0.525736 -0.958465
v 0.458467 -0.525738 -1.066441
v 1.658729 0.006778 0.661535
v 1.658729 0.006778 -0.661535
v 0.000000 0.000000 2.140802
v 1.025150 0.000000 1.731945
v -1.658729 0.006778 0.661535
v -1.025150 0.000000 1.731945
v -1.025150 0.000000 -1.264781
v -1.658729 0.006778 -0.661535
v 1.025150 0.000000 -1.264781
v 0.000000 0.000000 -1.162854
v 1.200263 0.664481 1.070395
v -0.458467 0.582819 1.731934
v -1.483605 0.734840 0.000000
v -0.458467 0.582819 -1.091241
v 1.200263 0.664481 -0.979489
v 0.283337 1.384601 1.070391
v 0.916919 1.534158 0.000000
v -0.741800 1.474049 0.661532
v -0.741800 1.474049 -0.661532
v 0.283337 1.384601 -0.992771
vt 0.181819 0.000000
vt 0.227273 0.078731
vt 0.136365 0.078731
vt 0.272728 0.157461
vt 0.318182 0.078731
vt 0.363637 0.157461
vt 0.909091 0.000000
vt 0.954545 0.078731
vt 0.863636 0.078731
vt 0.727273 0.000000
vt 0.772727 0.078731
vt 0.681818 0.078731
vt 0.545455 0.000000
vt 0.590909 0.078731
vt 0.500000 0.078731
vt 0.318182 0.236191
vt 0.090910 0.157461
vt 0.181819 0.157461
vt 0.136365 0.236191
vt 0.818182 0.157461
vt 0.909091 0.157461
vt 0.863636 0.236191
vt 0.636364 0.157461
vt 0.727273 0.157461
vt 0.681818 0.236191
vt 0.454546 0.157461
vt 0.545455 0.157461
vt 0.500000 0.236191
vt 0.227273 0.236191
vt 0.045455 0.236191
vt 0.772727 0.236191
vt 0.590909 0.236191
vt 0.409092 0.236191
vt 0.181819 0.314921
vt 0.272728 0.314921
vt 0.227273 0.393651
vt 0.000000 0.314921
vt 0.090910 0.314921
vt 0.045455 0.393651
vt 0.727273 0.314921
vt 0.818182 0.314921
vt 0.772727 0.393651
vt 0.545455 0.314921
vt 0.636364 0.314921
vt 0.590909 0.393651
vt 0.363637 0.314921
vt 0.454546 0.314921
vt 0.409092 0.393651
vt 0.500000 0.393651
vt 0.454546 0.472382
vt 0.681818 0.393651
vt 0.636364 0.472382
vt 0.863636 0.393651
vt 0.818182 0.472382
vt 0.909091 0.314921
vt 0.136365 0.393651
vt 0.090910 0.472382
vt 0.318182 0.393651
vt 0.272728 0.472382
vt 0.954545 0.236191
vt 1.000000 0.157461
vt 0.409092 0.078731
vt 0.363637 0.000000
vn 0.0569 -0.9886 0.1395
vn 0.5108 -0.8448 0.1594
vn -0.1495 -0.9852 0.0844
vn -0.1491 -0.9823 -0.1131
vn 0.0329 -0.9835 -0.1780
vn 0.8298 -0.5211 0.1996
vn 0.0258 -0.5996 0.7999
vn -0.8187 -0.5232 0.2367
vn -0.1297 -0.4666 -0.8749
vn 0.1083 -0.4509 -0.8860
vn 0.8387 -0.2270 0.4950
vn -0.3581 -0.2559 0.8979
vn -0.9771 -0.2127 0.0000
vn 0.0964 -0.2253 -0.9695
vn 0.6890 -0.0499 -0.7231
vn 0.4836 0.6157 0.6221
vn -0.5081 0.5910 0.6266
vn -0.7911 0.5445 -0.2786
vn -0.0100 0.1310 -0.9913
vn 0.7969 0.5474 -0.2555
vn 0.4977 0.7527 -0.4310
vn 0.5532 0.6959 -0.4579
vn 0.1413 0.1619 -0.9766
vn -0.1346 0.7695 -0.6243
vn -0.2600 0.3510 -0.8995
vn -0.1049 0.4047 -0.9084
vn -0.6683 0.7439 0.0000
vn -0.7059 0.7083 0.0000
vn -0.7870 0.5618 0.2547
vn -0.1702 0.7832 0.5981
vn -0.1989 0.7266 0.6576
vn 0.0029 0.6348 0.7726
vn 0.5043 0.7626 0.4051
vn 0.5578 0.7103 0.4294
vn 0.8012 0.5503 0.2350
vn 0.8458 0.4543 -0.2797
vn 0.6831 0.1286 -0.7189
vn 0.0729 0.3772 -0.9233
vn -0.0123 0.1124 -0.9936
vn 0.0970 0.1962 -0.9758
vn -0.1043 0.3756 -0.9209
vn -0.8490 0.4524 -0.2731
vn -0.9723 0.2339 0.0000
vn -0.8665 0.4334 0.2476
vn -0.5342 0.5195 0.6669
vn -0.3485 0.3389 0.8739
vn -0.0097 0.5692 0.8222
vn 0.5509 0.5114 0.6595
vn 0.8275 0.2713 0.4915
vn 0.8605 0.4369 0.2620
vn -0.0970 0.1975 -0.9755
vn -0.0955 -0.2596 -0.9610
vn 0.0294 -0.1554 -0.9874
vn -0.6892 0.0265 -0.7241
vn -0.6783 -0.1879 -0.7103
vn -0.7985 -0.5454 -0.2549
vn -0.8437 0.1939 0.5006
vn -0.8127 -0.3320 0.4789
vn -0.5650 -0.5666 0.5998
vn 0.3592 0.2443 0.9007
vn 0.3440 -0.3708 0.8626
vn 0.5295 -0.5707 0.6277
vn 0.9863 0.1648 0.0000
vn 0.9499 -0.3125 0.0000
vn 0.8117 -0.5409 -0.2204
vn 0.1206 -0.7696 -0.6270
vn 0.1118 -0.7733 -0.6241
vn -0.0175 -0.6148 -0.7885
vn -0.0893 -0.6343 -0.7679
vn -0.2899 -0.9302 -0.2253
vn -0.5231 -0.8427 -0.1271
vn -0.5240 -0.8441 0.1140
vn -0.3279 -0.9254 0.1902
vn -0.3081 -0.8696 0.3858
vn 0.5139 -0.8392 -0.1781
vn 0.4000 -0.9165 0.0000
vn 0.1804 -0.9836 0.0000
vn -0.0295 -0.8837 0.4671
vn 0.1280 -0.9395 0.3179
vn 0.3526 -0.8658 0.3550
usemtl None
s off
f 1/1/1 14/2/1 13/3/1
f 2/4/2 14/5/2 16/6/2
f 1/7/3 13/8/3 18/9/3
f 1/10/4 18/11/4 20/12/4
f 1/13/5 20/14/5 17/15/5
f 2/4/6 16/6/6 23/16/6
f 3/17/7 15/18/7 25/19/7
f 4/20/8 19/21/8 27/22/8
f 5/23/9 21/24/9 29/25/9
f 6/26/10 22/27/10 31/28/10
f 2/4/11 23/16/11 26/29/11
f 3/17/12 25/19/12 28/30/12
f 4/20/13 27/22/13 30/31/13
f 5/23/14 29/25/14 32/32/14
f 6/26/15 31/28/15 24/33/15
f 7/34/16 33/35/16 38/36/16
f 8/37/17 34/38/17 40/39/17
f 9/40/18 35/41/18 41/42/18
f 10/43/19 36/44/19 42/45/19
f 11/46/20 37/47/20 39/48/20
f 39/48/21 42/49/21 12/50/21
f 39/48/22 37/47/22 42/49/22
f 37/47/23 10/43/23 42/49/23
f 42/45/24 41/51/24 12/52/24
f 42/45/25 36/44/25 41/51/25
f 36/44/26 9/40/26 41/51/26
f 41/42/27 40/53/27 12/54/27
f 41/42/28 35/41/28 40/53/28
f 35/41/29 8/55/29 40/53/29
f 40/39/30 38/56/30 12/57/30
f 40/39/31 34/38/31 38/56/31
f 34/38/32 7/34/32 38/56/32
f 38/36/33 39/58/33 12/59/33
f 38/36/34 33/35/34 39/58/34
f 33/35/35 11/46/35 39/58/35
f 24/33/36 37/47/36 11/46/36
f 24/33/37 31/28/37 37/47/37
f 31/28/38 10/43/38 37/47/38
f 32/32/39 36/44/39 10/43/39
f 32/32/40 29/25/40 36/44/40
f 29/25/41 9/40/41 36/44/41
f 30/31/42 35/41/42 9/40/42
f 30/31/43 27/22/43 35/41/43
f 27/22/44 8/55/44 35/41/44
f 28/30/45 34/38/45 8/37/45
f 28/30/46 25/19/46 34/38/46
f 25/19/47 7/34/47 34/38/47
f 26/29/48 33/35/48 7/34/48
f 26/29/49 23/16/49 33/35/49
f 23/16/50 11/46/50 33/35/50
f 31/28/51 32/32/51 10/43/51
f 31/28/52 22/27/52 32/32/52
f 22/27/53 5/23/53 32/32/53
f 29/25/54 30/31/54 9/40/54
f 29/25/55 21/24/55 30/31/55
f 21/24/56 4/20/56 30/31/56
f 27/22/57 28/60/57 8/55/57
f 27/22/58 19/21/58 28/60/58
f 19/21/59 3/61/59 28/60/59
f 25/19/60 26/29/60 7/34/60
f 25/19/61 15/18/61 26/29/61
f 15/18/62 2/4/62 26/29/62
f 23/16/63 24/33/63 11/46/63
f 23/16/64 16/6/64 24/33/64
f 16/6/65 6/26/65 24/33/65
f 17/15/66 22/27/66 6/26/66
f 17/15/67 20/14/67 22/27/67
f 20/14/68 5/23/68 22/27/68
f 20/12/69 21/24/69 5/23/69
f 20/12/70 18/11/70 21/24/70
f 18/11/71 4/20/71 21/24/71
f 18/9/72 19/21/72 4/20/72
f 18/9/73 13/8/73 19/21/73
f 13/8/74 3/61/74 19/21/74
f 16/6/75 17/62/75 6/26/75
f 16/6/76 14/5/76 17/62/76
f 14/5/77 1/63/77 17/62/77
f 13/3/78 15/18/78 3/17/78
f 13/3/79 14/2/79 15/18/79
f 14/2/80 2/4/80 15/18/80
